<svg xmlns="http://www.w3.org/2000/svg" viewBox="0 0 245.45 228.7"><defs><style>.cls-1,.cls-2{fill:#995d49;}.cls-1{stroke:#231f20;}.cls-1,.cls-2,.cls-4{stroke-miterlimit:10;}.cls-1,.cls-4{stroke-width:14px;}.cls-2{stroke:#f2f2f3;stroke-width:5px;}.cls-3{fill:#99a0a9;}.cls-4{fill:none;stroke:#150e0b;}</style></defs><g id="Layer_1" data-name="Layer 1"><circle class="cls-1" cx="105.48" cy="117.96" r="98.48"/><circle class="cls-2" cx="106.04" cy="118.52" r="63.93"/></g><g id="Layer_2" data-name="Layer 2"><path class="cls-3" d="M211.13,443.19q-14.07,0-21.23-4.73t-7.16-15.72c0-.52.43-.77,1.28-.77a28.36,28.36,0,0,1,6.39,1.28q4.6,1.28,17.65,1.28a157.43,157.43,0,0,0,40.66-5,116,116,0,0,0,32.35-13.68q13.68-8.7,21.23-19.57t7.54-22.37q0-10.49-5.88-16.88a37.09,37.09,0,0,0-15.47-9.72,92.07,92.07,0,0,0-20.85-4.47,217.78,217.78,0,0,0-22.24-1.16c-3.24,0-6.52.05-9.85.13s-6.44.13-9.33.13q-5.9,20.71-11.51,41.68T203.2,414.3a16.38,16.38,0,0,1-10.74-3.58,10.9,10.9,0,0,1-4.35-8.7,24.61,24.61,0,0,1,1.28-7.16c.85-2.72,1.62-5.2,2.3-7.42q1.55-5.1,5.37-17.13t9.34-28.13q5.49-16.11,12.14-33.76t13.69-34.52q7-16.87,13.68-29.92a72.65,72.65,0,0,0-18,5.11,88,88,0,0,0-11.38,6q-4.09,2.68-5.88,2.69a6.7,6.7,0,0,1-3.2-1.15,15.28,15.28,0,0,1-3.45-2.82,4.63,4.63,0,0,1-1.54-2.94q12.8-5.37,26.73-9.71T263,236.82a139.17,139.17,0,0,1,18.67,1.4,69.14,69.14,0,0,1,19.44,5.63,37.93,37.93,0,0,1,15.08,12.28q5.88,8.06,5.89,21.35,0,12.52-5.37,21.35a46.08,46.08,0,0,1-14.07,14.58,77.72,77.72,0,0,1-18.92,9.08,129.08,129.08,0,0,1-20.21,4.86q18.93,1,30.56,5.37t17.65,10.35a31,31,0,0,1,8.05,12.66,43.31,43.31,0,0,1,2.05,12.79,48.88,48.88,0,0,1-7.67,26.85,75.93,75.93,0,0,1-20.2,21,132.62,132.62,0,0,1-27.37,15,165.09,165.09,0,0,1-29.41,8.95A133.41,133.41,0,0,1,211.13,443.19Zm16.62-117.12a182.89,182.89,0,0,0,28-3.2,94.87,94.87,0,0,0,25.45-8.57A52.27,52.27,0,0,0,299.74,299q7-9.45,7-23.53,0-13.29-6.26-20.46a32.93,32.93,0,0,0-16.11-10,75.82,75.82,0,0,0-20.85-2.81h-2.43a13.37,13.37,0,0,0-2.43.25,314.28,314.28,0,0,0-16.75,39.39Q234.4,303.31,227.75,326.07Z" transform="translate(-76.67 -223.44)"/><path class="cls-4" d="M231.23,434.78S209,328.65,83.67,353.68" transform="translate(-76.67 -223.44)"/><path class="cls-4" d="M87.08,328.61s103.65,38.88,150.64-82.76" transform="translate(-76.67 -223.44)"/><path class="cls-4" d="M84.09,228.88s121.07,98.14,0,218.29" transform="translate(-76.67 -223.44)"/></g></svg>